<svg version="1.1" id="Layer_1" xmlns="http://www.w3.org/2000/svg" xmlns:xlink="http://www.w3.org/1999/xlink" x="0px" y="0px"
	 width="100%" viewBox="0 0 2000 1250" enable-background="new 0 0 2000 1250" xml:space="preserve">
<path fill="#010C80" opacity="1.000000" stroke="none" 
	d="
M1003.000000,1251.000000 
	C1001.933228,1251.000000 1000.866455,1251.000000 999.214478,1250.712891 
	C987.745483,1244.113403 976.881592,1237.766479 965.973877,1231.495728 
	C941.142761,1217.220459 916.255127,1203.042847 891.455322,1188.713379 
	C862.792480,1172.151855 834.232422,1155.412476 805.566833,1138.855591 
	C774.313904,1120.804321 742.968140,1102.913696 711.705627,1084.878906 
	C682.022400,1067.755005 652.389160,1050.544312 622.743896,1033.354736 
	C604.272766,1022.644226 585.848145,1011.853271 567.351379,1001.187439 
	C548.849426,990.518616 530.275513,979.974792 511.748505,969.349487 
	C496.239777,960.455078 480.832123,951.380188 465.209045,942.692139 
	C460.442322,940.041321 458.853027,936.871765 458.857574,931.333496 
	C459.024811,727.716309 458.998291,524.099060 458.998505,320.481750 
	C458.998505,319.148743 458.635284,317.672394 459.087860,316.515839 
	C459.792725,314.714478 460.648132,312.455597 462.141144,311.560455 
	C474.489777,304.156555 486.982208,296.991241 499.465057,289.812714 
	C524.437378,275.451813 549.465637,261.187958 574.407166,246.773819 
	C603.070740,230.208588 631.633301,213.468643 660.298462,196.906128 
	C691.548950,178.849792 722.886108,160.943375 754.149719,142.909622 
	C783.975403,125.705307 813.761719,108.432678 843.552429,91.167854 
	C861.883057,80.544533 880.160461,69.829071 898.514954,59.247238 
	C917.016907,48.580391 935.626770,38.100483 954.110291,27.402138 
	C969.134216,18.706209 984.041138,9.808308 999.000000,0.999997 
	C1000.066772,1.000000 1001.133545,1.000000 1002.785522,1.287185 
	C1026.563110,15.036427 1049.720703,28.558578 1072.955933,41.946289 
	C1106.665039,61.368992 1140.455444,80.651031 1174.164307,100.074448 
	C1203.998169,117.265114 1233.757568,134.585144 1263.570068,151.813004 
	C1281.343018,162.083542 1299.164917,172.269714 1316.946899,182.524567 
	C1335.874634,193.440125 1354.783081,204.388687 1373.696655,215.328720 
	C1392.037842,225.937775 1410.367432,236.566879 1428.715332,247.164200 
	C1448.927002,258.838043 1469.159180,270.476562 1489.372314,282.147797 
	C1505.428711,291.418793 1521.373169,300.890594 1537.581177,309.887909 
	C1542.050049,312.368683 1543.100098,315.365387 1543.097412,320.154053 
	C1542.984741,524.112366 1543.000366,728.070801 1543.000366,932.029175 
	C1543.000366,933.028992 1542.890747,934.043152 1543.020142,935.025879 
	C1543.404175,937.940491 1542.001343,939.487488 1539.519165,940.871948 
	C1528.099121,947.241638 1516.757202,953.753784 1505.444458,960.313660 
	C1479.098267,975.590820 1452.816895,990.979919 1426.449219,1006.219849 
	C1401.508423,1020.635010 1376.466309,1034.875000 1351.513550,1049.269653 
	C1321.975708,1066.309326 1292.485352,1083.431152 1262.975586,1100.519287 
	C1246.215332,1110.224731 1229.470825,1119.957153 1212.694702,1129.634888 
	C1194.913452,1139.892212 1177.089355,1150.075073 1159.309204,1160.334229 
	C1140.956055,1170.923950 1122.642090,1181.581909 1104.294189,1192.180786 
	C1085.945801,1202.780029 1067.551270,1213.299805 1049.223755,1223.935181 
	C1033.781006,1232.896729 1018.405396,1241.974121 1003.000000,1251.000000 
M730.976440,901.364502 
	C753.327576,899.328003 774.585205,893.183533 795.856140,884.169556 
	C798.591919,883.071228 801.437988,882.186523 804.045959,880.840515 
	C823.146606,870.981934 842.199585,861.030762 861.944641,850.985657 
	C865.226379,849.044006 868.603455,847.245728 871.774170,845.137207 
	C891.230835,832.198730 910.640808,819.190002 930.738281,806.010193 
	C934.725220,803.162231 938.771545,800.393311 942.687683,797.451111 
	C953.439270,789.373779 964.397400,781.543213 974.802917,773.038757 
	C1000.333801,752.172302 1025.599854,730.981873 1051.609985,709.717651 
	C1069.359497,693.458557 1087.108887,677.199402 1105.491577,660.699829 
	C1112.690918,653.782898 1119.775024,646.738464 1127.174316,640.042542 
	C1128.930298,638.453491 1131.700684,637.341675 1134.077759,637.194641 
	C1144.027588,636.579285 1154.005249,636.414551 1164.677368,636.325134 
	C1180.952881,636.325134 1197.228394,636.325134 1213.524780,636.325134 
	C1212.390503,638.697815 1210.890747,641.811096 1209.411133,644.933899 
	C1190.075684,685.740295 1173.025391,727.368103 1164.558960,771.994873 
	C1160.919312,791.179626 1158.180786,810.570190 1161.109619,830.062622 
	C1164.304199,851.324219 1171.023560,857.565369 1190.477539,857.838318 
	C1208.733398,858.094360 1224.876587,852.340820 1238.972900,841.172241 
	C1242.672363,838.241211 1244.850098,833.314331 1247.444214,829.128967 
	C1247.944336,828.321960 1247.535645,826.215332 1246.798950,825.592834 
	C1246.113892,825.014160 1244.170532,825.195374 1243.235962,825.775208 
	C1240.134766,827.699280 1237.295410,830.038940 1234.251709,832.063232 
	C1229.011597,835.548340 1224.009888,839.618713 1218.336304,842.174011 
	C1209.017212,846.371338 1199.523804,842.493591 1195.593750,833.102661 
	C1193.642822,828.441040 1192.516602,823.223206 1192.100830,818.167908 
	C1190.538696,799.175171 1195.515259,781.136353 1201.577271,763.475586 
	C1207.287964,746.838501 1213.912354,730.515015 1220.671265,713.613708 
	C1231.422241,690.864685 1242.343506,668.193542 1252.802856,645.311157 
	C1255.381348,639.670471 1258.238281,635.768799 1265.818604,636.658325 
	C1282.729980,635.103455 1299.683105,633.896912 1316.538574,631.875244 
	C1328.404053,630.452026 1340.167236,628.075745 1351.906128,625.769470 
	C1354.659058,625.228638 1357.129517,623.250916 1359.729980,621.934265 
	C1359.582520,621.218689 1359.435181,620.503174 1359.287720,619.787598 
	C1355.471436,619.187195 1351.651611,618.046997 1347.839600,618.073181 
	C1320.858398,618.258118 1293.878906,618.682129 1266.705078,618.300964 
	C1266.946411,617.586609 1267.187744,616.872314 1267.903320,615.700317 
	C1283.496460,585.132141 1299.089600,554.564026 1315.092651,523.405701 
	C1327.477905,499.196594 1339.381470,474.707886 1356.569214,452.637329 
	C1363.346680,446.022400 1369.731201,438.927979 1377.030029,432.949493 
	C1382.532471,428.442413 1387.153320,423.540588 1388.976562,416.825775 
	C1392.976074,402.098450 1396.704956,387.279663 1399.886841,372.357971 
	C1401.001465,367.131805 1400.798462,361.413452 1400.083862,356.068695 
	C1399.386353,350.852875 1395.468506,348.970825 1390.423950,350.505829 
	C1388.062500,351.224426 1385.563477,352.093811 1383.646851,353.570129 
	C1373.266357,361.565857 1363.048462,369.772766 1352.165405,378.154999 
	C1337.428711,392.727081 1322.692139,407.299194 1307.343506,422.157135 
	C1297.184814,432.729218 1286.996948,443.273407 1276.875000,453.880676 
	C1264.807617,466.526886 1252.796875,479.227112 1240.173828,492.191650 
	C1237.501099,494.923492 1234.831787,497.658691 1232.155151,500.386536 
	C1211.320801,521.619629 1190.484985,542.851257 1169.027344,564.433411 
	C1153.873535,579.054932 1138.472168,593.432190 1123.687012,608.417480 
	C1117.730347,614.454712 1111.688354,618.431274 1102.154053,616.780212 
	C1089.769531,615.984985 1077.384888,615.189819 1064.160156,614.139465 
	C1055.579346,613.232483 1046.988159,612.412415 1038.420166,611.397278 
	C1026.690063,610.007568 1016.185181,615.506958 1012.451355,626.229919 
	C1007.230286,641.223999 1008.171509,644.506348 1025.109253,643.423584 
	C1038.468872,642.569641 1051.706177,639.803894 1065.852295,637.998291 
	C1076.033447,637.012695 1086.214478,636.027100 1096.461304,635.150391 
	C1096.461304,635.150391 1096.552979,635.062439 1096.409790,635.872803 
	C1094.390869,637.836426 1092.416260,639.848145 1090.345703,641.755798 
	C1076.166992,654.819031 1061.968140,667.860535 1047.160522,681.145142 
	C1033.755493,693.080505 1020.533203,705.229126 1006.906067,716.905151 
	C981.051575,739.057617 954.965210,760.939575 928.312927,783.111694 
	C905.149963,799.576843 881.987000,816.041931 858.149414,832.765930 
	C836.724060,844.403503 815.298767,856.041077 793.124146,867.815308 
	C772.813599,876.315491 752.025635,883.113342 729.158813,885.412659 
	C706.332092,886.895630 684.350769,884.748108 664.809143,869.998108 
	C655.237793,861.901184 649.306213,851.542236 646.017517,839.577637 
	C641.859009,824.448303 641.147522,808.954712 643.704773,793.657532 
	C646.540222,776.695862 650.893127,759.987915 654.909851,742.542419 
	C657.314697,735.368713 659.549194,728.132568 662.154114,721.032288 
	C673.261658,690.755798 685.884888,661.151733 702.138428,632.421204 
	C704.933044,627.624817 707.304443,622.513611 710.597168,618.087830 
	C723.329407,600.974670 736.355530,584.080078 749.852356,566.800964 
	C755.562744,560.857544 760.945984,554.551514 767.050232,549.044678 
	C780.575012,536.843628 794.461853,525.043823 808.852417,512.910706 
	C829.215210,497.391479 850.767029,483.810272 874.722717,472.907288 
	C895.517456,463.653839 917.088257,458.613220 940.756653,461.117615 
	C959.786682,464.429840 970.726196,476.423889 976.179138,494.232635 
	C983.399414,517.813171 981.459534,540.920166 970.117737,562.543579 
	C959.552307,582.686829 947.370300,601.982239 935.899292,621.650452 
	C935.010437,623.174561 934.117371,624.696167 933.226196,626.218994 
	C933.477600,626.715759 933.728943,627.212524 933.980347,627.709290 
	C936.964783,626.852478 940.642151,626.816040 942.806335,624.988159 
	C949.877258,619.015808 957.187439,613.030334 962.967590,605.886414 
	C975.929688,589.865967 984.893433,571.408508 992.403503,552.308350 
	C1000.010620,532.961182 1005.125977,513.027466 1003.938232,492.000610 
	C1002.972900,474.911896 995.378174,461.791931 979.690186,454.065796 
	C967.515930,448.070068 954.501831,445.806152 940.240051,445.712097 
	C917.383545,444.897522 895.315857,448.846100 873.112122,456.771912 
	C848.888367,465.092865 826.251404,476.607697 804.195496,490.865845 
	C784.784485,505.205597 765.373535,519.545288 745.321045,534.108337 
	C744.061035,535.185852 742.729248,536.190674 741.551941,537.352051 
	C727.294006,551.416626 713.058838,565.504333 698.216919,579.922058 
	C680.397949,599.783142 664.234558,620.887573 649.901672,644.163574 
	C627.655518,679.670776 610.129333,717.110779 603.554077,758.918457 
	C599.637146,783.823914 599.335510,808.684692 607.037354,833.027100 
	C616.059265,861.541931 634.852051,880.853271 663.493896,891.537781 
	C674.352966,894.316528 685.078430,898.014526 696.108398,899.617065 
	C707.276001,901.239624 718.744751,900.789490 730.976440,901.364502 
z"/>
<path fill="#4C6971" opacity="1.000000" stroke="none" 
	d="
M998.531372,0.999997 
	C984.041138,9.808308 969.134216,18.706209 954.110291,27.402138 
	C935.626770,38.100483 917.016907,48.580391 898.514954,59.247238 
	C880.160461,69.829071 861.883057,80.544533 843.552429,91.167854 
	C813.761719,108.432678 783.975403,125.705307 754.149719,142.909622 
	C722.886108,160.943375 691.548950,178.849792 660.298462,196.906128 
	C631.633301,213.468643 603.070740,230.208588 574.407166,246.773819 
	C549.465637,261.187958 524.437378,275.451813 499.465057,289.812714 
	C486.982208,296.991241 474.489777,304.156555 462.141144,311.560455 
	C460.648132,312.455597 459.792725,314.714478 459.087860,316.515839 
	C458.635284,317.672394 458.998505,319.148743 458.998505,320.481750 
	C458.998291,524.099060 459.024811,727.716309 458.857574,931.333496 
	C458.853027,936.871765 460.442322,940.041321 465.209045,942.692139 
	C480.832123,951.380188 496.239777,960.455078 511.748505,969.349487 
	C530.275513,979.974792 548.849426,990.518616 567.351379,1001.187439 
	C585.848145,1011.853271 604.272766,1022.644226 622.743896,1033.354736 
	C652.389160,1050.544312 682.022400,1067.755005 711.705627,1084.878906 
	C742.968140,1102.913696 774.313904,1120.804321 805.566833,1138.855591 
	C834.232422,1155.412476 862.792480,1172.151855 891.455322,1188.713379 
	C916.255127,1203.042847 941.142761,1217.220459 965.973877,1231.495728 
	C976.881592,1237.766479 987.745483,1244.113403 998.814636,1250.712891 
	C666.378052,1251.000000 333.756042,1251.000000 1.067040,1251.000000 
	C1.067040,834.434021 1.067040,417.868011 1.067040,1.000000 
	C333.354156,1.000000 665.708435,1.000000 998.531372,0.999997 
z"/>
<path fill="#4C6971" opacity="1.000000" stroke="none" 
	d="
M1003.468628,1251.000000 
	C1018.405396,1241.974121 1033.781006,1232.896729 1049.223755,1223.935181 
	C1067.551270,1213.299805 1085.945801,1202.780029 1104.294189,1192.180786 
	C1122.642090,1181.581909 1140.956055,1170.923950 1159.309204,1160.334229 
	C1177.089355,1150.075073 1194.913452,1139.892212 1212.694702,1129.634888 
	C1229.470825,1119.957153 1246.215332,1110.224731 1262.975586,1100.519287 
	C1292.485352,1083.431152 1321.975708,1066.309326 1351.513550,1049.269653 
	C1376.466309,1034.875000 1401.508423,1020.635010 1426.449219,1006.219849 
	C1452.816895,990.979919 1479.098267,975.590820 1505.444458,960.313660 
	C1516.757202,953.753784 1528.099121,947.241638 1539.519165,940.871948 
	C1542.001343,939.487488 1543.404175,937.940491 1543.020142,935.025879 
	C1542.890747,934.043152 1543.000366,933.028992 1543.000366,932.029175 
	C1543.000366,728.070801 1542.984741,524.112366 1543.097412,320.154053 
	C1543.100098,315.365387 1542.050049,312.368683 1537.581177,309.887909 
	C1521.373169,300.890594 1505.428711,291.418793 1489.372314,282.147797 
	C1469.159180,270.476562 1448.927002,258.838043 1428.715332,247.164200 
	C1410.367432,236.566879 1392.037842,225.937775 1373.696655,215.328720 
	C1354.783081,204.388687 1335.874634,193.440125 1316.946899,182.524567 
	C1299.164917,172.269714 1281.343018,162.083542 1263.570068,151.813004 
	C1233.757568,134.585144 1203.998169,117.265114 1174.164307,100.074448 
	C1140.455444,80.651031 1106.665039,61.368992 1072.955933,41.946289 
	C1049.720703,28.558578 1026.563110,15.036427 1003.185425,1.287185 
	C1335.621948,1.000000 1668.244019,1.000000 2000.932983,1.000000 
	C2000.932983,417.565979 2000.932983,834.132019 2000.932983,1251.000000 
	C1668.645874,1251.000000 1336.291626,1251.000000 1003.468628,1251.000000 
z"/>
<path fill="#E3D693" opacity="1.000000" stroke="none" 
	d="
M1220.134766,714.053528 
	C1213.912354,730.515015 1207.287964,746.838501 1201.577271,763.475586 
	C1195.515259,781.136353 1190.538696,799.175171 1192.100830,818.167908 
	C1192.516602,823.223206 1193.642822,828.441040 1195.593750,833.102661 
	C1199.523804,842.493591 1209.017212,846.371338 1218.336304,842.174011 
	C1224.009888,839.618713 1229.011597,835.548340 1234.251709,832.063232 
	C1237.295410,830.038940 1240.134766,827.699280 1243.235962,825.775208 
	C1244.170532,825.195374 1246.113892,825.014160 1246.798950,825.592834 
	C1247.535645,826.215332 1247.944336,828.321960 1247.444214,829.128967 
	C1244.850098,833.314331 1242.672363,838.241211 1238.972900,841.172241 
	C1224.876587,852.340820 1208.733398,858.094360 1190.477539,857.838318 
	C1171.023560,857.565369 1164.304199,851.324219 1161.109619,830.062622 
	C1158.180786,810.570190 1160.919312,791.179626 1164.558960,771.994873 
	C1173.025391,727.368103 1190.075684,685.740295 1209.411133,644.933899 
	C1210.890747,641.811096 1212.390503,638.697815 1213.524780,636.325134 
	C1197.228394,636.325134 1180.952881,636.325134 1164.332031,635.731201 
	C1163.987549,628.870300 1163.988403,622.603271 1164.450684,616.243958 
	C1182.940308,616.472473 1200.968750,616.793274 1218.998291,617.575562 
	C1218.999634,647.976562 1218.977417,677.916077 1219.048828,707.855347 
	C1219.053711,709.922302 1219.756470,711.987549 1220.134766,714.053528 
z"/>
<path fill="#D2C081" opacity="1.000000" stroke="none" 
	d="
M654.585327,743.169495 
	C650.893127,759.987915 646.540222,776.695862 643.704773,793.657532 
	C641.147522,808.954712 641.859009,824.448303 646.017517,839.577637 
	C649.306213,851.542236 655.237793,861.901184 664.809082,870.632141 
	C664.206299,873.259766 663.199768,875.229980 663.082703,877.251709 
	C662.817322,881.838074 662.989685,886.449768 662.984070,891.051208 
	C634.852051,880.853271 616.059265,861.541931 607.037354,833.027100 
	C599.335510,808.684692 599.637146,783.823914 603.554077,758.918457 
	C610.129333,717.110779 627.655518,679.670776 650.455750,644.227173 
	C651.339783,646.379822 651.952576,648.468201 651.957153,650.557983 
	C652.020325,679.366333 651.946960,708.175232 652.111389,736.982849 
	C652.123169,739.049683 653.723511,741.107483 654.585327,743.169495 
z"/>
<path fill="#F5EEA8" opacity="1.000000" stroke="none" 
	d="
M941.008240,445.973175 
	C954.501831,445.806152 967.515930,448.070068 979.690186,454.065796 
	C995.378174,461.791931 1002.972900,474.911896 1003.938232,492.000610 
	C1005.125977,513.027466 1000.010620,532.961182 992.403503,552.308350 
	C984.893433,571.408508 975.929688,589.865967 962.967590,605.886414 
	C957.187439,613.030334 949.877258,619.015808 942.806335,624.988159 
	C940.642151,626.816040 936.964783,626.852478 933.980347,627.709290 
	C933.728943,627.212524 933.477600,626.715759 933.226196,626.218994 
	C934.117371,624.696167 935.010437,623.174561 935.899292,621.650452 
	C947.370300,601.982239 959.552307,582.686829 970.117737,562.543579 
	C981.459534,540.920166 983.399414,517.813171 976.179138,494.232635 
	C970.726196,476.423889 959.786682,464.429840 940.461304,460.598938 
	C940.446777,455.377869 940.727478,450.675537 941.008240,445.973175 
z"/>
<path fill="#DFD08E" opacity="1.000000" stroke="none" 
	d="
M1220.402954,713.833618 
	C1219.756470,711.987549 1219.053711,709.922302 1219.048828,707.855347 
	C1218.977417,677.916077 1218.999634,647.976562 1219.334473,617.462891 
	C1220.781982,615.301575 1222.013306,613.784058 1222.988892,612.116943 
	C1235.903442,590.047424 1248.781982,567.956909 1262.087769,545.932373 
	C1263.337280,547.883545 1264.873535,549.767517 1264.890991,551.665466 
	C1265.069336,570.987488 1264.923218,590.312439 1265.107300,609.634277 
	C1265.127930,611.815979 1266.619629,613.983765 1267.428955,616.158020 
	C1267.187744,616.872314 1266.946411,617.586609 1266.443848,618.810486 
	C1265.778564,625.052734 1265.374634,630.785461 1264.970703,636.518188 
	C1258.238281,635.768799 1255.381348,639.670471 1252.802856,645.311157 
	C1242.343506,668.193542 1231.422241,690.864685 1220.402954,713.833618 
z"/>
<path fill="#D5C383" opacity="1.000000" stroke="none" 
	d="
M1307.955444,421.871277 
	C1322.692139,407.299194 1337.428711,392.727081 1352.852051,378.177826 
	C1354.025879,380.185913 1354.925659,382.169006 1354.936157,384.156738 
	C1355.040649,404.293396 1354.962280,424.431000 1355.043579,444.567871 
	C1355.054932,447.361145 1355.653687,450.152039 1355.980591,452.944031 
	C1339.381470,474.707886 1327.477905,499.196594 1314.565796,523.539490 
	C1314.025635,520.168518 1314.002075,516.663696 1314.000854,513.158936 
	C1313.996582,500.571930 1314.148560,487.982025 1313.904907,475.399719 
	C1313.836304,471.857025 1312.615967,468.336609 1311.981934,464.469116 
	C1314.393921,460.116119 1316.747925,456.099945 1319.407471,451.876740 
	C1319.667480,450.972107 1319.621826,450.274506 1319.763672,449.589020 
	C1319.837036,449.585815 1319.723022,449.570465 1319.541260,449.837128 
	C1319.118896,450.574341 1318.763916,451.029541 1318.136230,451.666138 
	C1315.192627,454.220032 1312.521973,456.592560 1309.604126,458.679138 
	C1308.904907,456.166077 1308.097046,453.944550 1308.061890,451.710876 
	C1307.905640,441.766266 1307.970459,431.818146 1307.955444,421.871277 
z"/>
<path fill="#D7C686" opacity="1.000000" stroke="none" 
	d="
M654.747559,742.855957 
	C653.723511,741.107483 652.123169,739.049683 652.111389,736.982849 
	C651.946960,708.175232 652.020325,679.366333 651.957153,650.557983 
	C651.952576,648.468201 651.339783,646.379822 650.669250,643.989136 
	C664.234558,620.887573 680.397949,599.783142 698.558289,580.248779 
	C698.933289,596.167114 698.875427,611.760254 699.119263,627.348694 
	C699.148926,629.241455 700.803223,631.108826 701.704468,632.987976 
	C685.884888,661.151733 673.261658,690.755798 662.154114,721.032288 
	C659.549194,728.132568 657.314697,735.368713 654.747559,742.855957 
z"/>
<path fill="#D9C888" opacity="1.000000" stroke="none" 
	d="
M1311.923950,464.805969 
	C1312.615967,468.336609 1313.836304,471.857025 1313.904907,475.399719 
	C1314.148560,487.982025 1313.996582,500.571930 1314.000854,513.158936 
	C1314.002075,516.663696 1314.025635,520.168518 1314.360840,523.834595 
	C1299.089600,554.564026 1283.496460,585.132141 1267.666260,615.929199 
	C1266.619629,613.983765 1265.127930,611.815979 1265.107300,609.634277 
	C1264.923218,590.312439 1265.069336,570.987488 1264.890991,551.665466 
	C1264.873535,549.767517 1263.337280,547.883545 1262.186768,545.589355 
	C1264.951294,540.059387 1267.958984,534.885620 1271.131836,529.815247 
	C1284.702637,508.128845 1298.322144,486.472961 1311.923950,464.805969 
z"/>
<path fill="#F5EEA8" opacity="1.000000" stroke="none" 
	d="
M1050.972534,709.921753 
	C1025.599854,730.981873 1000.333801,752.172302 974.802917,773.038757 
	C964.397400,781.543213 953.439270,789.373779 942.687683,797.451111 
	C938.771545,800.393311 934.725220,803.162231 930.387329,805.625977 
	C929.682617,797.805786 929.328918,790.369812 928.975220,782.933838 
	C954.965210,760.939575 981.051575,739.057617 1006.906067,716.905151 
	C1020.533203,705.229126 1033.755493,693.080505 1047.850098,681.173340 
	C1049.026367,683.014282 1049.835571,684.808167 1049.943604,686.643250 
	C1050.400269,694.396057 1050.648315,702.161133 1050.972534,709.921753 
z"/>
<path fill="#D0BD7E" opacity="1.000000" stroke="none" 
	d="
M1356.274902,452.790680 
	C1355.653687,450.152039 1355.054932,447.361145 1355.043579,444.567871 
	C1354.962280,424.431000 1355.040649,404.293396 1354.936157,384.156738 
	C1354.925659,382.169006 1354.025879,380.185913 1353.156738,378.053772 
	C1363.048462,369.772766 1373.266357,361.565857 1383.646851,353.570129 
	C1385.563477,352.093811 1388.062500,351.224426 1390.423950,350.505829 
	C1395.468506,348.970825 1399.386353,350.852875 1400.083862,356.068695 
	C1400.798462,361.413452 1401.001465,367.131805 1399.886841,372.357971 
	C1396.704956,387.279663 1392.976074,402.098450 1388.976562,416.825775 
	C1387.153320,423.540588 1382.532471,428.442413 1377.030029,432.949493 
	C1369.731201,438.927979 1363.346680,446.022400 1356.274902,452.790680 
z"/>
<path fill="#EADF9A" opacity="1.000000" stroke="none" 
	d="
M1163.989380,616.336243 
	C1163.988403,622.603271 1163.987549,628.870300 1163.979736,635.610962 
	C1154.005249,636.414551 1144.027588,636.579285 1134.077759,637.194641 
	C1131.700684,637.341675 1128.930298,638.453491 1127.174316,640.042542 
	C1119.775024,646.738464 1112.690918,653.782898 1104.924683,660.538696 
	C1103.905396,658.156799 1103.084961,655.939819 1103.061646,653.714600 
	C1102.933350,641.477051 1103.000244,629.237427 1103.000000,616.998535 
	C1111.688354,618.431274 1117.730347,614.454712 1123.687012,608.417480 
	C1138.472168,593.432190 1153.873535,579.054932 1169.513916,564.706909 
	C1170.333862,570.362671 1170.529297,575.758728 1171.068726,581.120300 
	C1171.283325,583.253113 1172.259888,585.309326 1172.693359,587.694641 
	C1162.762817,596.982178 1153.028442,605.975403 1143.294189,614.968689 
	C1143.477539,615.424561 1143.660889,615.880371 1143.844238,616.336243 
	C1150.559326,616.336243 1157.274292,616.336243 1163.989380,616.336243 
z"/>
<path fill="#F0E6A1" opacity="1.000000" stroke="none" 
	d="
M1102.577026,616.889404 
	C1103.000244,629.237427 1102.933350,641.477051 1103.061646,653.714600 
	C1103.084961,655.939819 1103.905396,658.156799 1104.608154,660.658936 
	C1087.108887,677.199402 1069.359497,693.458557 1051.291260,709.819702 
	C1050.648315,702.161133 1050.400269,694.396057 1049.943604,686.643250 
	C1049.835571,684.808167 1049.026367,683.014282 1048.157715,681.055237 
	C1061.968140,667.860535 1076.166992,654.819031 1090.345703,641.755798 
	C1092.416260,639.848145 1094.390869,637.836426 1096.459229,635.497375 
	C1096.508667,635.121948 1096.395630,635.041565 1096.395630,635.041565 
	C1086.214478,636.027100 1076.033447,637.012695 1065.426025,637.481323 
	C1065.000000,629.441101 1065.000244,621.917908 1065.000366,614.394653 
	C1077.384888,615.189819 1089.769531,615.984985 1102.577026,616.889404 
z"/>
<path fill="#D9C888" opacity="1.000000" stroke="none" 
	d="
M1307.649414,422.014221 
	C1307.970459,431.818146 1307.905640,441.766266 1308.061890,451.710876 
	C1308.097046,453.944550 1308.904907,456.166077 1309.458008,458.973328 
	C1304.713745,464.108673 1299.885254,468.682007 1295.020142,473.215851 
	C1278.003540,489.073700 1260.974365,504.917908 1243.867310,520.373047 
	C1243.523926,512.410889 1243.393066,504.834625 1242.908691,497.281006 
	C1242.791382,495.450287 1241.508545,493.694305 1240.761597,491.903961 
	C1252.796875,479.227112 1264.807617,466.526886 1276.875000,453.880676 
	C1286.996948,443.273407 1297.184814,432.729218 1307.649414,422.014221 
z"/>
<path fill="#DCCD8B" opacity="1.000000" stroke="none" 
	d="
M701.921509,632.704590 
	C700.803223,631.108826 699.148926,629.241455 699.119263,627.348694 
	C698.875427,611.760254 698.933289,596.167114 698.858704,580.080688 
	C713.058838,565.504333 727.294006,551.416626 741.551941,537.352051 
	C742.729248,536.190674 744.061035,535.185852 745.652161,534.472839 
	C745.990051,543.447388 745.781311,552.066833 746.152710,560.661072 
	C746.247253,562.849670 748.182617,564.958618 749.272095,567.104126 
	C736.355530,584.080078 723.329407,600.974670 710.597168,618.087830 
	C707.304443,622.513611 704.933044,627.624817 701.921509,632.704590 
z"/>
<path fill="#E3D693" opacity="1.000000" stroke="none" 
	d="
M1240.467773,492.047791 
	C1241.508545,493.694305 1242.791382,495.450287 1242.908691,497.281006 
	C1243.393066,504.834625 1243.523926,512.410889 1243.684082,520.660156 
	C1220.018799,543.361084 1196.454224,565.380737 1172.889526,587.400391 
	C1172.259888,585.309326 1171.283325,583.253113 1171.068726,581.120300 
	C1170.529297,575.758728 1170.333862,570.362671 1169.825073,564.531860 
	C1190.484985,542.851257 1211.320801,521.619629 1232.155151,500.386536 
	C1234.831787,497.658691 1237.501099,494.923492 1240.467773,492.047791 
z"/>
<path fill="#E3D693" opacity="1.000000" stroke="none" 
	d="
M749.562256,566.952515 
	C748.182617,564.958618 746.247253,562.849670 746.152710,560.661072 
	C745.781311,552.066833 745.990051,543.447388 745.972900,534.361206 
	C765.373535,519.545288 784.784485,505.205597 804.565369,491.258392 
	C804.958069,497.294312 805.008423,502.937805 804.990234,508.581055 
	C804.982788,510.900970 805.112427,513.018188 808.201050,513.080444 
	C794.461853,525.043823 780.575012,536.843628 767.050232,549.044678 
	C760.945984,554.551514 755.562744,560.857544 749.562256,566.952515 
z"/>
<path fill="#F0E6A1" opacity="1.000000" stroke="none" 
	d="
M928.644043,783.022827 
	C929.328918,790.369812 929.682617,797.805786 930.051331,805.723206 
	C910.640808,819.190002 891.230835,832.198730 871.774170,845.137207 
	C868.603455,847.245728 865.226379,849.044006 861.221985,850.898254 
	C860.000122,849.175659 859.160950,847.559631 859.067383,845.901550 
	C858.816040,841.446350 858.883362,836.973206 858.824097,832.507080 
	C881.987000,816.041931 905.149963,799.576843 928.644043,783.022827 
z"/>
<path fill="#F1E9A3" opacity="1.000000" stroke="none" 
	d="
M1064.580322,614.267090 
	C1065.000244,621.917908 1065.000000,629.441101 1064.998779,637.425781 
	C1051.706177,639.803894 1038.468872,642.569641 1025.109253,643.423584 
	C1008.171509,644.506348 1007.230286,641.223999 1012.451355,626.229919 
	C1016.185181,615.506958 1026.690063,610.007568 1038.420166,611.397278 
	C1046.988159,612.412415 1055.579346,613.232483 1064.580322,614.267090 
z"/>
<path fill="#E7DB98" opacity="1.000000" stroke="none" 
	d="
M808.526733,512.995605 
	C805.112427,513.018188 804.982788,510.900970 804.990234,508.581055 
	C805.008423,502.937805 804.958069,497.294312 804.908203,491.161499 
	C826.251404,476.607697 848.888367,465.092865 873.526184,457.221619 
	C873.956238,462.764343 873.972229,467.857330 873.988281,472.950348 
	C850.767029,483.810272 829.215210,497.391479 808.526733,512.995605 
z"/>
<path fill="#D9C888" opacity="1.000000" stroke="none" 
	d="
M1265.394653,636.588257 
	C1265.374634,630.785461 1265.778564,625.052734 1266.540649,619.174988 
	C1293.878906,618.682129 1320.858398,618.258118 1347.839600,618.073181 
	C1351.651611,618.046997 1355.471436,619.187195 1359.287720,619.787598 
	C1359.435181,620.503174 1359.582520,621.218689 1359.729980,621.934265 
	C1357.129517,623.250916 1354.659058,625.228638 1351.906128,625.769470 
	C1340.167236,628.075745 1328.404053,630.452026 1316.538574,631.875244 
	C1299.683105,633.896912 1282.729980,635.103455 1265.394653,636.588257 
z"/>
<path fill="#E7DB98" opacity="1.000000" stroke="none" 
	d="
M858.486755,832.636536 
	C858.883362,836.973206 858.816040,841.446350 859.067383,845.901550 
	C859.160950,847.559631 860.000122,849.175659 860.883484,850.959839 
	C842.199585,861.030762 823.146606,870.981934 804.045959,880.840515 
	C801.437988,882.186523 798.591919,883.071228 795.314697,883.828125 
	C794.473267,878.217346 794.173401,872.947998 793.873474,867.678589 
	C815.298767,856.041077 836.724060,844.403503 858.486755,832.636536 
z"/>
<path fill="#D9C888" opacity="1.000000" stroke="none" 
	d="
M663.239014,891.294495 
	C662.989685,886.449768 662.817322,881.838074 663.082703,877.251709 
	C663.199768,875.229980 664.206299,873.259766 664.996216,870.891052 
	C684.350769,884.748108 706.332092,886.895630 729.582825,885.898560 
	C730.031738,891.338745 730.056702,896.292969 730.081604,901.247192 
	C718.744751,900.789490 707.276001,901.239624 696.108398,899.617065 
	C685.078430,898.014526 674.352966,894.316528 663.239014,891.294495 
z"/>
<path fill="#DFD08E" opacity="1.000000" stroke="none" 
	d="
M730.529053,901.305847 
	C730.056702,896.292969 730.031738,891.338745 730.006042,885.950562 
	C752.025635,883.113342 772.813599,876.315491 793.498779,867.746948 
	C794.173401,872.947998 794.473267,878.217346 794.942505,883.889771 
	C774.585205,893.183533 753.327576,899.328003 730.529053,901.305847 
z"/>
<path fill="#F0E6A1" opacity="1.000000" stroke="none" 
	d="
M874.355469,472.928833 
	C873.972229,467.857330 873.956238,462.764343 873.917480,457.185303 
	C895.315857,448.846100 917.383545,444.897522 940.624146,445.842651 
	C940.727478,450.675537 940.446777,455.377869 940.085693,460.480957 
	C917.088257,458.613220 895.517456,463.653839 874.355469,472.928833 
z"/>
<path fill="#F1E9A3" opacity="1.000000" stroke="none" 
	d="
M1096.428467,635.095947 
	C1096.395630,635.041565 1096.508667,635.121948 1096.530762,635.092163 
	C1096.552979,635.062439 1096.461304,635.150391 1096.428467,635.095947 
z"/>
<path fill="#030E80" opacity="1.000000" stroke="none" 
	d="
M1172.693359,587.694641 
	C1196.454224,565.380737 1220.018799,543.361084 1243.766724,521.054321 
	C1260.974365,504.917908 1278.003540,489.073700 1295.020142,473.215851 
	C1299.885254,468.682007 1304.713745,464.108673 1309.705078,459.259277 
	C1312.521973,456.592560 1315.192627,454.220032 1318.306763,451.819824 
	C1318.750244,451.792145 1319.101929,452.083801 1319.101807,452.083801 
	C1316.747925,456.099945 1314.393921,460.116119 1311.981934,464.469116 
	C1298.322144,486.472961 1284.702637,508.128845 1271.131836,529.815247 
	C1267.958984,534.885620 1264.951294,540.059387 1261.768555,545.528564 
	C1248.781982,567.956909 1235.903442,590.047424 1222.988892,612.116943 
	C1222.013306,613.784058 1220.781982,615.301575 1219.333252,617.001343 
	C1200.968750,616.793274 1182.940308,616.472473 1164.450684,616.243958 
	C1157.274292,616.336243 1150.559326,616.336243 1143.844238,616.336243 
	C1143.660889,615.880371 1143.477539,615.424561 1143.294189,614.968689 
	C1153.028442,605.975403 1162.762817,596.982178 1172.693359,587.694641 
z"/>
<path fill="#030E80" opacity="1.000000" stroke="none" 
	d="
M1319.576172,449.576904 
	C1319.621826,450.274506 1319.667480,450.972107 1319.407471,451.876770 
	C1319.101929,452.083801 1318.750244,451.792145 1318.579590,451.638428 
	C1318.763916,451.029541 1319.118896,450.574341 1319.551636,449.869751 
	C1319.629517,449.620361 1319.576294,449.576904 1319.576172,449.576904 
z"/>
<path fill="#030E80" opacity="1.000000" stroke="none" 
	d="
M1319.619141,449.587738 
	C1319.723022,449.570465 1319.837036,449.585815 1319.763672,449.589020 
	C1319.576294,449.576904 1319.629517,449.620361 1319.619141,449.587738 
z"/>
</svg>